<?xml version="1.0" encoding="UTF-8" standalone="no"?>
<!DOCTYPE svg PUBLIC "-//W3C//DTD SVG 1.1//EN"
 "http://www.w3.org/Graphics/SVG/1.1/DTD/svg11.dtd">
<!-- Generated by graphviz version 14.1.3 (20260303.0454)
 -->
<!-- Title: AST Pages: 1 -->
<svg width="984pt" height="723pt"
 viewBox="0.00 0.00 984.00 723.00" xmlns="http://www.w3.org/2000/svg" xmlns:xlink="http://www.w3.org/1999/xlink">
<g id="graph0" class="graph" transform="scale(1 1) rotate(0) translate(4 718.61)">
<title>AST</title>
<polygon fill="white" stroke="none" points="-4,4 -4,-718.61 980,-718.61 980,4 -4,4"/>
<!-- node0 -->
<g id="node1" class="node">
<title>node0</title>
<polygon fill="lightblue" stroke="black" points="144,-714.61 90,-714.61 90,-678.61 144,-678.61 144,-714.61"/>
<text xml:space="preserve" text-anchor="middle" x="117" y="-691.18" font-family="Arial" font-size="14.00" fill="#333333">int</text>
</g>
<!-- node1 -->
<g id="node2" class="node">
<title>node1</title>
<polygon fill="lightblue" stroke="black" points="684,-714.61 630,-714.61 630,-678.61 684,-678.61 684,-714.61"/>
<text xml:space="preserve" text-anchor="middle" x="657" y="-691.18" font-family="Arial" font-size="14.00" fill="#333333">void</text>
</g>
<!-- node0&#45;&gt;node1 -->
<g id="edge1" class="edge">
<title>node0&#45;&gt;node1</title>
<path fill="none" stroke="gray" stroke-dasharray="5,2" d="M144.42,-696.61C302.4,-696.61 460.37,-696.61 618.35,-696.61"/>
<polygon fill="gray" stroke="gray" points="618.21,-700.11 628.21,-696.61 618.21,-693.11 618.21,-700.11"/>
</g>
<!-- node2 -->
<g id="node3" class="node">
<title>node2</title>
<ellipse fill="gold" stroke="black" cx="117" cy="-614.68" rx="47.91" ry="27.93"/>
<text xml:space="preserve" text-anchor="middle" x="117" y="-617.13" font-family="Arial" font-size="14.00" fill="#333333">Function</text>
<text xml:space="preserve" text-anchor="middle" x="117" y="-601.38" font-family="Arial" font-size="14.00" fill="#333333">gcd</text>
</g>
<!-- node0&#45;&gt;node2 -->
<g id="edge2" class="edge">
<title>node0&#45;&gt;node2</title>
<path fill="none" stroke="#666666" d="M117,-678.26C117,-671.19 117,-662.71 117,-654.31"/>
<polygon fill="#666666" stroke="#666666" points="120.5,-654.56 117,-644.56 113.5,-654.56 120.5,-654.56"/>
</g>
<!-- node27 -->
<g id="node28" class="node">
<title>node27</title>
<ellipse fill="gold" stroke="black" cx="657" cy="-614.68" rx="47.91" ry="27.93"/>
<text xml:space="preserve" text-anchor="middle" x="657" y="-617.13" font-family="Arial" font-size="14.00" fill="#333333">Function</text>
<text xml:space="preserve" text-anchor="middle" x="657" y="-601.38" font-family="Arial" font-size="14.00" fill="#333333">main</text>
</g>
<!-- node1&#45;&gt;node27 -->
<g id="edge29" class="edge">
<title>node1&#45;&gt;node27</title>
<path fill="none" stroke="#666666" d="M657,-678.26C657,-671.19 657,-662.71 657,-654.31"/>
<polygon fill="#666666" stroke="#666666" points="660.5,-654.56 657,-644.56 653.5,-654.56 660.5,-654.56"/>
</g>
<!-- node3 -->
<g id="node4" class="node">
<title>node3</title>
<polygon fill="lightblue" stroke="black" points="54,-550.75 0,-550.75 0,-514.75 54,-514.75 54,-550.75"/>
<text xml:space="preserve" text-anchor="middle" x="27" y="-527.32" font-family="Arial" font-size="14.00" fill="#333333">int</text>
</g>
<!-- node2&#45;&gt;node3 -->
<g id="edge3" class="edge">
<title>node2&#45;&gt;node3</title>
<path fill="none" stroke="#666666" d="M91.45,-590.99C80.1,-580.91 66.71,-569.02 55.09,-558.69"/>
<polygon fill="#666666" stroke="#666666" points="57.53,-556.18 47.73,-552.16 52.89,-561.42 57.53,-556.18"/>
</g>
<!-- node4 -->
<g id="node5" class="node">
<title>node4</title>
<polygon fill="lightblue" stroke="black" points="144,-550.75 90,-550.75 90,-514.75 144,-514.75 144,-550.75"/>
<text xml:space="preserve" text-anchor="middle" x="117" y="-527.32" font-family="Arial" font-size="14.00" fill="#333333">int</text>
</g>
<!-- node2&#45;&gt;node4 -->
<!-- node7 -->
<g id="node8" class="node">
<title>node7</title>
<polygon fill="lightcoral" stroke="black" points="216,-550.75 162,-550.75 162,-514.75 216,-514.75 216,-550.75"/>
<text xml:space="preserve" text-anchor="middle" x="189" y="-527.32" font-family="Arial" font-size="14.00" fill="#333333">{}</text>
</g>
<!-- node2&#45;&gt;node7 -->
<g id="edge8" class="edge">
<title>node2&#45;&gt;node7</title>
<path fill="none" stroke="#666666" d="M138.6,-589.7C147.17,-580.19 157.03,-569.24 165.75,-559.56"/>
<polygon fill="#666666" stroke="#666666" points="168.26,-562 172.35,-552.23 163.06,-557.32 168.26,-562"/>
</g>
<!-- node3&#45;&gt;node4 -->
<g id="edge5" class="edge">
<title>node3&#45;&gt;node4</title>
<path fill="none" stroke="gray" stroke-dasharray="5,2" d="M54.42,-532.75C62.4,-532.75 70.37,-532.75 78.35,-532.75"/>
<polygon fill="gray" stroke="gray" points="78.11,-536.25 88.11,-532.75 78.11,-529.25 78.11,-536.25"/>
</g>
<!-- node5 -->
<g id="node6" class="node">
<title>node5</title>
<polygon fill="lightgreen" stroke="black" points="54,-478.75 0,-478.75 0,-439.25 54,-439.25 54,-478.75"/>
<text xml:space="preserve" text-anchor="middle" x="27" y="-461.45" font-family="Arial" font-size="14.00" fill="#333333">Var</text>
<text xml:space="preserve" text-anchor="middle" x="27" y="-445.7" font-family="Arial" font-size="14.00" fill="#333333">u</text>
</g>
<!-- node3&#45;&gt;node5 -->
<g id="edge6" class="edge">
<title>node3&#45;&gt;node5</title>
<path fill="none" stroke="#666666" d="M27,-514.38C27,-507.24 27,-498.77 27,-490.65"/>
<polygon fill="#666666" stroke="#666666" points="30.5,-490.74 27,-480.74 23.5,-490.74 30.5,-490.74"/>
</g>
<!-- node6 -->
<g id="node7" class="node">
<title>node6</title>
<polygon fill="lightgreen" stroke="black" points="144,-478.75 90,-478.75 90,-439.25 144,-439.25 144,-478.75"/>
<text xml:space="preserve" text-anchor="middle" x="117" y="-461.45" font-family="Arial" font-size="14.00" fill="#333333">Var</text>
<text xml:space="preserve" text-anchor="middle" x="117" y="-445.7" font-family="Arial" font-size="14.00" fill="#333333">v</text>
</g>
<!-- node4&#45;&gt;node6 -->
<g id="edge7" class="edge">
<title>node4&#45;&gt;node6</title>
<path fill="none" stroke="#666666" d="M117,-514.38C117,-507.24 117,-498.77 117,-490.65"/>
<polygon fill="#666666" stroke="#666666" points="120.5,-490.74 117,-480.74 113.5,-490.74 120.5,-490.74"/>
</g>
<!-- node8 -->
<g id="node9" class="node">
<title>node8</title>
<polygon fill="lightblue" stroke="black" points="216,-477 162,-477 162,-441 216,-441 216,-477"/>
<text xml:space="preserve" text-anchor="middle" x="189" y="-453.57" font-family="Arial" font-size="14.00" fill="#333333">int</text>
</g>
<!-- node7&#45;&gt;node8 -->
<g id="edge9" class="edge">
<title>node7&#45;&gt;node8</title>
<path fill="none" stroke="#666666" d="M189,-514.38C189,-506.68 189,-497.41 189,-488.73"/>
<polygon fill="#666666" stroke="#666666" points="192.5,-488.97 189,-478.97 185.5,-488.97 192.5,-488.97"/>
</g>
<!-- node10 -->
<g id="node11" class="node">
<title>node10</title>
<polygon fill="orange" stroke="black" points="293,-477 266,-459 293,-441 320,-459 293,-477"/>
<text xml:space="preserve" text-anchor="middle" x="293" y="-453.57" font-family="Arial" font-size="14.00" fill="#333333">IF</text>
</g>
<!-- node7&#45;&gt;node10 -->
<g id="edge11" class="edge">
<title>node7&#45;&gt;node10</title>
<path fill="none" stroke="#666666" d="M214.18,-514.38C231.4,-502.49 254.03,-486.88 270.63,-475.43"/>
<polygon fill="#666666" stroke="#666666" points="272.59,-478.33 278.83,-469.77 268.61,-472.57 272.59,-478.33"/>
</g>
<!-- node9 -->
<g id="node10" class="node">
<title>node9</title>
<polygon fill="lightgreen" stroke="black" points="200,-401.37 146,-401.37 146,-361.87 200,-361.87 200,-401.37"/>
<text xml:space="preserve" text-anchor="middle" x="173" y="-384.07" font-family="Arial" font-size="14.00" fill="#333333">Var</text>
<text xml:space="preserve" text-anchor="middle" x="173" y="-368.32" font-family="Arial" font-size="14.00" fill="#333333">x</text>
</g>
<!-- node8&#45;&gt;node9 -->
<g id="edge10" class="edge">
<title>node8&#45;&gt;node9</title>
<path fill="none" stroke="#666666" d="M185.29,-440.51C183.54,-432.29 181.41,-422.24 179.42,-412.84"/>
<polygon fill="#666666" stroke="#666666" points="182.9,-412.4 177.4,-403.34 176.05,-413.85 182.9,-412.4"/>
</g>
<!-- node11 -->
<g id="node12" class="node">
<title>node11</title>
<ellipse fill="lavender" stroke="black" cx="240" cy="-381.62" rx="21.62" ry="21.62"/>
<text xml:space="preserve" text-anchor="middle" x="240" y="-376.2" font-family="Arial" font-size="14.00" fill="#333333">==</text>
</g>
<!-- node10&#45;&gt;node11 -->
<g id="edge12" class="edge">
<title>node10&#45;&gt;node11</title>
<path fill="none" stroke="#666666" d="M284.72,-446.22C277.76,-436.32 267.55,-421.8 258.64,-409.13"/>
<polygon fill="#666666" stroke="#666666" points="261.64,-407.32 253.03,-401.15 255.92,-411.35 261.64,-407.32"/>
</g>
<!-- node14 -->
<g id="node15" class="node">
<title>node14</title>
<polygon fill="lightcoral" stroke="black" points="336,-399.62 282,-399.62 282,-363.62 336,-363.62 336,-399.62"/>
<text xml:space="preserve" text-anchor="middle" x="309" y="-376.2" font-family="Arial" font-size="14.00" fill="#333333">{}</text>
</g>
<!-- node10&#45;&gt;node14 -->
<g id="edge15" class="edge">
<title>node10&#45;&gt;node14</title>
<path fill="none" stroke="#666666" d="M296.24,-442.74C298.17,-433.65 300.68,-421.81 302.97,-411.04"/>
<polygon fill="#666666" stroke="#666666" points="306.35,-411.95 305,-401.44 299.5,-410.5 306.35,-411.95"/>
</g>
<!-- node17 -->
<g id="node18" class="node">
<title>node17</title>
<polygon fill="pink" stroke="black" points="427.12,-399.62 354.88,-399.62 354.88,-363.62 427.12,-363.62 427.12,-399.62"/>
<text xml:space="preserve" text-anchor="middle" x="391" y="-376.2" font-family="Arial" font-size="14.00" fill="#333333">RETURN</text>
</g>
<!-- node10&#45;&gt;node17 -->
<g id="edge18" class="edge">
<title>node10&#45;&gt;node17</title>
<path fill="none" stroke="#666666" d="M305.02,-448.75C318.48,-438.4 340.86,-421.19 359.41,-406.92"/>
<polygon fill="#666666" stroke="#666666" points="361.43,-409.78 367.22,-400.91 357.16,-404.23 361.43,-409.78"/>
</g>
<!-- node12 -->
<g id="node13" class="node">
<title>node12</title>
<polygon fill="lightyellow" stroke="black" points="203,-324 149,-324 149,-288 203,-288 203,-324"/>
<text xml:space="preserve" text-anchor="middle" x="176" y="-300.57" font-family="Arial" font-size="14.00" fill="#333333">v</text>
</g>
<!-- node11&#45;&gt;node12 -->
<g id="edge13" class="edge">
<title>node11&#45;&gt;node12</title>
<path fill="none" stroke="#666666" d="M226.11,-364.65C218.07,-355.4 207.75,-343.53 198.57,-332.97"/>
<polygon fill="#666666" stroke="#666666" points="201.4,-330.88 192.2,-325.63 196.11,-335.47 201.4,-330.88"/>
</g>
<!-- node13 -->
<g id="node14" class="node">
<title>node13</title>
<ellipse fill="lightpink" stroke="black" cx="239" cy="-306" rx="18" ry="18"/>
<text xml:space="preserve" text-anchor="middle" x="239" y="-300.57" font-family="Arial" font-size="14.00" fill="#333333">0</text>
</g>
<!-- node11&#45;&gt;node13 -->
<g id="edge14" class="edge">
<title>node11&#45;&gt;node13</title>
<path fill="none" stroke="#666666" d="M239.72,-359.72C239.61,-352.18 239.5,-343.54 239.39,-335.46"/>
<polygon fill="#666666" stroke="#666666" points="242.89,-335.69 239.25,-325.74 235.89,-335.79 242.89,-335.69"/>
</g>
<!-- node15 -->
<g id="node16" class="node">
<title>node15</title>
<polygon fill="pink" stroke="black" points="347.12,-324 274.88,-324 274.88,-288 347.12,-288 347.12,-324"/>
<text xml:space="preserve" text-anchor="middle" x="311" y="-300.57" font-family="Arial" font-size="14.00" fill="#333333">RETURN</text>
</g>
<!-- node14&#45;&gt;node15 -->
<g id="edge16" class="edge">
<title>node14&#45;&gt;node15</title>
<path fill="none" stroke="#666666" d="M309.47,-363.18C309.7,-354.92 309.97,-344.86 310.22,-335.54"/>
<polygon fill="#666666" stroke="#666666" points="313.72,-335.93 310.49,-325.84 306.72,-335.74 313.72,-335.93"/>
</g>
<!-- node16 -->
<g id="node17" class="node">
<title>node16</title>
<polygon fill="lightyellow" stroke="black" points="338,-252 284,-252 284,-216 338,-216 338,-252"/>
<text xml:space="preserve" text-anchor="middle" x="311" y="-228.57" font-family="Arial" font-size="14.00" fill="#333333">u</text>
</g>
<!-- node15&#45;&gt;node16 -->
<g id="edge17" class="edge">
<title>node15&#45;&gt;node16</title>
<path fill="none" stroke="#666666" d="M311,-287.7C311,-280.41 311,-271.73 311,-263.54"/>
<polygon fill="#666666" stroke="#666666" points="314.5,-263.62 311,-253.62 307.5,-263.62 314.5,-263.62"/>
</g>
<!-- node18 -->
<g id="node19" class="node">
<title>node18</title>
<polygon fill="peachpuff" stroke="black" points="419,-324 365,-324 365,-288 419,-288 419,-324"/>
<text xml:space="preserve" text-anchor="middle" x="392" y="-300.57" font-family="Arial" font-size="14.00" fill="#333333">gcd()</text>
</g>
<!-- node17&#45;&gt;node18 -->
<g id="edge19" class="edge">
<title>node17&#45;&gt;node18</title>
<path fill="none" stroke="#666666" d="M391.24,-363.18C391.35,-354.92 391.49,-344.86 391.61,-335.54"/>
<polygon fill="#666666" stroke="#666666" points="395.11,-335.88 391.74,-325.84 388.11,-335.79 395.11,-335.88"/>
</g>
<!-- node19 -->
<g id="node20" class="node">
<title>node19</title>
<polygon fill="lightyellow" stroke="black" points="414,-252 360,-252 360,-216 414,-216 414,-252"/>
<text xml:space="preserve" text-anchor="middle" x="387" y="-228.57" font-family="Arial" font-size="14.00" fill="#333333">v</text>
</g>
<!-- node18&#45;&gt;node19 -->
<g id="edge20" class="edge">
<title>node18&#45;&gt;node19</title>
<path fill="none" stroke="#666666" d="M390.76,-287.7C390.24,-280.41 389.62,-271.73 389.04,-263.54"/>
<polygon fill="#666666" stroke="#666666" points="392.53,-263.34 388.33,-253.61 385.55,-263.84 392.53,-263.34"/>
</g>
<!-- node20 -->
<g id="node21" class="node">
<title>node20</title>
<ellipse fill="lavender" stroke="black" cx="468" cy="-234" rx="18" ry="18"/>
<text xml:space="preserve" text-anchor="middle" x="468" y="-228.57" font-family="Arial" font-size="14.00" fill="#333333">&#45;</text>
</g>
<!-- node18&#45;&gt;node20 -->
<!-- node19&#45;&gt;node20 -->
<g id="edge22" class="edge">
<title>node19&#45;&gt;node20</title>
<path fill="none" stroke="gray" stroke-dasharray="5,2" d="M414.21,-234C422.21,-234 430.21,-234 438.2,-234"/>
<polygon fill="gray" stroke="gray" points="438,-237.5 448,-234 438,-230.5 438,-237.5"/>
</g>
<!-- node21 -->
<g id="node22" class="node">
<title>node21</title>
<polygon fill="lightyellow" stroke="black" points="463,-180 409,-180 409,-144 463,-144 463,-180"/>
<text xml:space="preserve" text-anchor="middle" x="436" y="-156.57" font-family="Arial" font-size="14.00" fill="#333333">u</text>
</g>
<!-- node20&#45;&gt;node21 -->
<g id="edge23" class="edge">
<title>node20&#45;&gt;node21</title>
<path fill="none" stroke="#666666" d="M460.74,-217.12C457.17,-209.32 452.77,-199.69 448.67,-190.73"/>
<polygon fill="#666666" stroke="#666666" points="451.88,-189.31 444.53,-181.67 445.51,-192.22 451.88,-189.31"/>
</g>
<!-- node22 -->
<g id="node23" class="node">
<title>node22</title>
<ellipse fill="lavender" stroke="black" cx="499" cy="-162" rx="18" ry="18"/>
<text xml:space="preserve" text-anchor="middle" x="499" y="-156.57" font-family="Arial" font-size="14.00" fill="#333333">*</text>
</g>
<!-- node20&#45;&gt;node22 -->
<g id="edge24" class="edge">
<title>node20&#45;&gt;node22</title>
<path fill="none" stroke="#666666" d="M475.03,-217.12C478.68,-208.88 483.23,-198.61 487.38,-189.24"/>
<polygon fill="#666666" stroke="#666666" points="490.53,-190.77 491.38,-180.21 484.13,-187.93 490.53,-190.77"/>
</g>
<!-- node23 -->
<g id="node24" class="node">
<title>node23</title>
<ellipse fill="lavender" stroke="black" cx="467" cy="-90" rx="18" ry="18"/>
<text xml:space="preserve" text-anchor="middle" x="467" y="-84.58" font-family="Arial" font-size="14.00" fill="#333333">/</text>
</g>
<!-- node22&#45;&gt;node23 -->
<g id="edge25" class="edge">
<title>node22&#45;&gt;node23</title>
<path fill="none" stroke="#666666" d="M491.74,-145.12C487.97,-136.88 483.28,-126.61 478.99,-117.24"/>
<polygon fill="#666666" stroke="#666666" points="482.2,-115.84 474.86,-108.2 475.84,-118.75 482.2,-115.84"/>
</g>
<!-- node26 -->
<g id="node27" class="node">
<title>node26</title>
<polygon fill="lightyellow" stroke="black" points="557,-108 503,-108 503,-72 557,-72 557,-108"/>
<text xml:space="preserve" text-anchor="middle" x="530" y="-84.58" font-family="Arial" font-size="14.00" fill="#333333">v</text>
</g>
<!-- node22&#45;&gt;node26 -->
<g id="edge28" class="edge">
<title>node22&#45;&gt;node26</title>
<path fill="none" stroke="#666666" d="M506.03,-145.12C509.49,-137.32 513.75,-127.69 517.72,-118.73"/>
<polygon fill="#666666" stroke="#666666" points="520.88,-120.24 521.73,-109.68 514.48,-117.4 520.88,-120.24"/>
</g>
<!-- node24 -->
<g id="node25" class="node">
<title>node24</title>
<polygon fill="lightyellow" stroke="black" points="458,-36 404,-36 404,0 458,0 458,-36"/>
<text xml:space="preserve" text-anchor="middle" x="431" y="-12.57" font-family="Arial" font-size="14.00" fill="#333333">u</text>
</g>
<!-- node23&#45;&gt;node24 -->
<g id="edge26" class="edge">
<title>node23&#45;&gt;node24</title>
<path fill="none" stroke="#666666" d="M459.01,-73.46C454.96,-65.59 449.92,-55.79 445.24,-46.68"/>
<polygon fill="#666666" stroke="#666666" points="448.36,-45.1 440.67,-37.81 442.13,-48.3 448.36,-45.1"/>
</g>
<!-- node25 -->
<g id="node26" class="node">
<title>node25</title>
<polygon fill="lightyellow" stroke="black" points="530,-36 476,-36 476,0 530,0 530,-36"/>
<text xml:space="preserve" text-anchor="middle" x="503" y="-12.57" font-family="Arial" font-size="14.00" fill="#333333">v</text>
</g>
<!-- node23&#45;&gt;node25 -->
<g id="edge27" class="edge">
<title>node23&#45;&gt;node25</title>
<path fill="none" stroke="#666666" d="M474.99,-73.46C479.04,-65.59 484.08,-55.79 488.76,-46.68"/>
<polygon fill="#666666" stroke="#666666" points="491.87,-48.3 493.33,-37.81 485.64,-45.1 491.87,-48.3"/>
</g>
<!-- node28 -->
<g id="node29" class="node">
<title>node28</title>
<polygon fill="lightcoral" stroke="black" points="684,-550.75 630,-550.75 630,-514.75 684,-514.75 684,-550.75"/>
<text xml:space="preserve" text-anchor="middle" x="657" y="-527.32" font-family="Arial" font-size="14.00" fill="#333333">{}</text>
</g>
<!-- node27&#45;&gt;node28 -->
<g id="edge30" class="edge">
<title>node27&#45;&gt;node28</title>
<path fill="none" stroke="#666666" d="M657,-586.62C657,-578.8 657,-570.24 657,-562.33"/>
<polygon fill="#666666" stroke="#666666" points="660.5,-562.52 657,-552.52 653.5,-562.52 660.5,-562.52"/>
</g>
<!-- node29 -->
<g id="node30" class="node">
<title>node29</title>
<polygon fill="lightblue" stroke="black" points="507,-477 453,-477 453,-441 507,-441 507,-477"/>
<text xml:space="preserve" text-anchor="middle" x="480" y="-453.57" font-family="Arial" font-size="14.00" fill="#333333">int</text>
</g>
<!-- node28&#45;&gt;node29 -->
<g id="edge31" class="edge">
<title>node28&#45;&gt;node29</title>
<path fill="none" stroke="#666666" d="M629.73,-520.69C599.72,-508.53 551.28,-488.89 517.65,-475.26"/>
<polygon fill="#666666" stroke="#666666" points="519.28,-472.14 508.7,-471.63 516.65,-478.63 519.28,-472.14"/>
</g>
<!-- node30 -->
<g id="node31" class="node">
<title>node30</title>
<polygon fill="lightblue" stroke="black" points="605,-477 551,-477 551,-441 605,-441 605,-477"/>
<text xml:space="preserve" text-anchor="middle" x="578" y="-453.57" font-family="Arial" font-size="14.00" fill="#333333">int</text>
</g>
<!-- node28&#45;&gt;node30 -->
<!-- node33 -->
<g id="node34" class="node">
<title>node33</title>
<ellipse fill="khaki" stroke="black" cx="657" cy="-459" rx="18" ry="18"/>
<text xml:space="preserve" text-anchor="middle" x="657" y="-453.57" font-family="Arial" font-size="14.00" fill="#333333">=</text>
</g>
<!-- node28&#45;&gt;node33 -->
<g id="edge36" class="edge">
<title>node28&#45;&gt;node33</title>
<path fill="none" stroke="#666666" d="M657,-514.38C657,-506.68 657,-497.41 657,-488.73"/>
<polygon fill="#666666" stroke="#666666" points="660.5,-488.97 657,-478.97 653.5,-488.97 660.5,-488.97"/>
</g>
<!-- node34 -->
<g id="node35" class="node">
<title>node34</title>
<ellipse fill="khaki" stroke="black" cx="760" cy="-459" rx="18" ry="18"/>
<text xml:space="preserve" text-anchor="middle" x="760" y="-453.57" font-family="Arial" font-size="14.00" fill="#333333">=</text>
</g>
<!-- node28&#45;&gt;node34 -->
<!-- node35 -->
<g id="node36" class="node">
<title>node35</title>
<polygon fill="peachpuff" stroke="black" points="905.25,-477 842.75,-477 842.75,-441 905.25,-441 905.25,-477"/>
<text xml:space="preserve" text-anchor="middle" x="874" y="-453.57" font-family="Arial" font-size="14.00" fill="#333333">output()</text>
</g>
<!-- node28&#45;&gt;node35 -->
<!-- node29&#45;&gt;node30 -->
<g id="edge33" class="edge">
<title>node29&#45;&gt;node30</title>
<path fill="none" stroke="gray" stroke-dasharray="5,2" d="M507.18,-459C517.92,-459 528.67,-459 539.41,-459"/>
<polygon fill="gray" stroke="gray" points="539.1,-462.5 549.1,-459 539.1,-455.5 539.1,-462.5"/>
</g>
<!-- node31 -->
<g id="node32" class="node">
<title>node31</title>
<polygon fill="lightgreen" stroke="black" points="499,-401.37 445,-401.37 445,-361.87 499,-361.87 499,-401.37"/>
<text xml:space="preserve" text-anchor="middle" x="472" y="-384.07" font-family="Arial" font-size="14.00" fill="#333333">Var</text>
<text xml:space="preserve" text-anchor="middle" x="472" y="-368.32" font-family="Arial" font-size="14.00" fill="#333333">x</text>
</g>
<!-- node29&#45;&gt;node31 -->
<g id="edge34" class="edge">
<title>node29&#45;&gt;node31</title>
<path fill="none" stroke="#666666" d="M478.14,-440.51C477.28,-432.38 476.23,-422.46 475.24,-413.15"/>
<polygon fill="#666666" stroke="#666666" points="478.74,-412.94 474.2,-403.37 471.78,-413.68 478.74,-412.94"/>
</g>
<!-- node32 -->
<g id="node33" class="node">
<title>node32</title>
<polygon fill="lightgreen" stroke="black" points="571,-401.37 517,-401.37 517,-361.87 571,-361.87 571,-401.37"/>
<text xml:space="preserve" text-anchor="middle" x="544" y="-384.07" font-family="Arial" font-size="14.00" fill="#333333">Var</text>
<text xml:space="preserve" text-anchor="middle" x="544" y="-368.32" font-family="Arial" font-size="14.00" fill="#333333">y</text>
</g>
<!-- node30&#45;&gt;node32 -->
<g id="edge35" class="edge">
<title>node30&#45;&gt;node32</title>
<path fill="none" stroke="#666666" d="M570.11,-440.51C566.32,-432.11 561.67,-421.8 557.35,-412.22"/>
<polygon fill="#666666" stroke="#666666" points="560.6,-410.92 553.3,-403.24 554.22,-413.8 560.6,-410.92"/>
</g>
<!-- node33&#45;&gt;node34 -->
<g id="edge39" class="edge">
<title>node33&#45;&gt;node34</title>
<path fill="none" stroke="gray" stroke-dasharray="5,2" d="M675.11,-459C693.51,-459 711.9,-459 730.3,-459"/>
<polygon fill="gray" stroke="gray" points="730.25,-462.5 740.25,-459 730.25,-455.5 730.25,-462.5"/>
</g>
<!-- node36 -->
<g id="node37" class="node">
<title>node36</title>
<polygon fill="lightyellow" stroke="black" points="643,-399.62 589,-399.62 589,-363.62 643,-363.62 643,-399.62"/>
<text xml:space="preserve" text-anchor="middle" x="616" y="-376.2" font-family="Arial" font-size="14.00" fill="#333333">x</text>
</g>
<!-- node33&#45;&gt;node36 -->
<g id="edge41" class="edge">
<title>node33&#45;&gt;node36</title>
<path fill="none" stroke="#666666" d="M648.7,-442.74C643.6,-433.36 636.9,-421.05 630.9,-410.01"/>
<polygon fill="#666666" stroke="#666666" points="634.01,-408.4 626.16,-401.29 627.86,-411.75 634.01,-408.4"/>
</g>
<!-- node37 -->
<g id="node38" class="node">
<title>node37</title>
<polygon fill="peachpuff" stroke="black" points="715.12,-399.62 660.88,-399.62 660.88,-363.62 715.12,-363.62 715.12,-399.62"/>
<text xml:space="preserve" text-anchor="middle" x="688" y="-376.2" font-family="Arial" font-size="14.00" fill="#333333">input()</text>
</g>
<!-- node33&#45;&gt;node37 -->
<g id="edge42" class="edge">
<title>node33&#45;&gt;node37</title>
<path fill="none" stroke="#666666" d="M663.57,-442.01C667.35,-432.84 672.19,-421.06 676.57,-410.42"/>
<polygon fill="#666666" stroke="#666666" points="679.75,-411.88 680.32,-401.3 673.28,-409.21 679.75,-411.88"/>
</g>
<!-- node34&#45;&gt;node35 -->
<g id="edge40" class="edge">
<title>node34&#45;&gt;node35</title>
<path fill="none" stroke="gray" stroke-dasharray="5,2" d="M778.26,-459C795.93,-459 813.6,-459 831.28,-459"/>
<polygon fill="gray" stroke="gray" points="831.07,-462.5 841.07,-459 831.07,-455.5 831.07,-462.5"/>
</g>
<!-- node38 -->
<g id="node39" class="node">
<title>node38</title>
<polygon fill="lightyellow" stroke="black" points="787,-399.62 733,-399.62 733,-363.62 787,-363.62 787,-399.62"/>
<text xml:space="preserve" text-anchor="middle" x="760" y="-376.2" font-family="Arial" font-size="14.00" fill="#333333">y</text>
</g>
<!-- node34&#45;&gt;node38 -->
<g id="edge43" class="edge">
<title>node34&#45;&gt;node38</title>
<path fill="none" stroke="#666666" d="M760,-440.51C760,-431.86 760,-421.18 760,-411.36"/>
<polygon fill="#666666" stroke="#666666" points="763.5,-411.52 760,-401.52 756.5,-411.52 763.5,-411.52"/>
</g>
<!-- node39 -->
<g id="node40" class="node">
<title>node39</title>
<polygon fill="peachpuff" stroke="black" points="859.12,-399.62 804.88,-399.62 804.88,-363.62 859.12,-363.62 859.12,-399.62"/>
<text xml:space="preserve" text-anchor="middle" x="832" y="-376.2" font-family="Arial" font-size="14.00" fill="#333333">input()</text>
</g>
<!-- node34&#45;&gt;node39 -->
<g id="edge44" class="edge">
<title>node34&#45;&gt;node39</title>
<path fill="none" stroke="#666666" d="M772.21,-445.21C781.86,-435.11 795.64,-420.69 807.54,-408.23"/>
<polygon fill="#666666" stroke="#666666" points="809.97,-410.75 814.35,-401.1 804.91,-405.91 809.97,-410.75"/>
</g>
<!-- node40 -->
<g id="node41" class="node">
<title>node40</title>
<polygon fill="peachpuff" stroke="black" points="931,-399.62 877,-399.62 877,-363.62 931,-363.62 931,-399.62"/>
<text xml:space="preserve" text-anchor="middle" x="904" y="-376.2" font-family="Arial" font-size="14.00" fill="#333333">gcd()</text>
</g>
<!-- node35&#45;&gt;node40 -->
<g id="edge45" class="edge">
<title>node35&#45;&gt;node40</title>
<path fill="none" stroke="#666666" d="M880.96,-440.51C884.52,-431.57 888.93,-420.48 892.95,-410.4"/>
<polygon fill="#666666" stroke="#666666" points="896.07,-412 896.52,-401.42 889.57,-409.41 896.07,-412"/>
</g>
<!-- node41 -->
<g id="node42" class="node">
<title>node41</title>
<polygon fill="lightyellow" stroke="black" points="886,-324 832,-324 832,-288 886,-288 886,-324"/>
<text xml:space="preserve" text-anchor="middle" x="859" y="-300.57" font-family="Arial" font-size="14.00" fill="#333333">x</text>
</g>
<!-- node40&#45;&gt;node41 -->
<g id="edge46" class="edge">
<title>node40&#45;&gt;node41</title>
<path fill="none" stroke="#666666" d="M893.34,-363.18C888.01,-354.47 881.45,-343.73 875.5,-333.99"/>
<polygon fill="#666666" stroke="#666666" points="878.58,-332.32 870.38,-325.61 872.61,-335.97 878.58,-332.32"/>
</g>
<!-- node42 -->
<g id="node43" class="node">
<title>node42</title>
<polygon fill="lightyellow" stroke="black" points="976,-324 922,-324 922,-288 976,-288 976,-324"/>
<text xml:space="preserve" text-anchor="middle" x="949" y="-300.57" font-family="Arial" font-size="14.00" fill="#333333">y</text>
</g>
<!-- node40&#45;&gt;node42 -->
<!-- node41&#45;&gt;node42 -->
<g id="edge48" class="edge">
<title>node41&#45;&gt;node42</title>
<path fill="none" stroke="gray" stroke-dasharray="5,2" d="M886.42,-306C894.4,-306 902.37,-306 910.35,-306"/>
<polygon fill="gray" stroke="gray" points="910.11,-309.5 920.11,-306 910.11,-302.5 910.11,-309.5"/>
</g>
</g>
</svg>
