<?xml version="1.0" encoding="UTF-8" standalone="no"?>
<!DOCTYPE svg PUBLIC "-//W3C//DTD SVG 1.1//EN"
 "http://www.w3.org/Graphics/SVG/1.1/DTD/svg11.dtd">
<!-- Generated by graphviz version 14.1.3 (20260303.0454)
 -->
<!-- Title: AST Pages: 1 -->
<svg width="863pt" height="723pt"
 viewBox="0.00 0.00 863.00 723.00" xmlns="http://www.w3.org/2000/svg" xmlns:xlink="http://www.w3.org/1999/xlink">
<g id="graph0" class="graph" transform="scale(1 1) rotate(0) translate(4 718.61)">
<title>AST</title>
<polygon fill="white" stroke="none" points="-4,4 -4,-718.61 859,-718.61 859,4 -4,4"/>
<!-- node0 -->
<g id="node1" class="node">
<title>node0</title>
<polygon fill="lightblue" stroke="black" points="144,-714.61 90,-714.61 90,-678.61 144,-678.61 144,-714.61"/>
<text xml:space="preserve" text-anchor="middle" x="117" y="-691.18" font-family="Arial" font-size="14.00" fill="#333333">int</text>
</g>
<!-- node1 -->
<g id="node2" class="node">
<title>node1</title>
<polygon fill="lightblue" stroke="black" points="563,-714.61 509,-714.61 509,-678.61 563,-678.61 563,-714.61"/>
<text xml:space="preserve" text-anchor="middle" x="536" y="-691.18" font-family="Arial" font-size="14.00" fill="#333333">void</text>
</g>
<!-- node0&#45;&gt;node1 -->
<g id="edge1" class="edge">
<title>node0&#45;&gt;node1</title>
<path fill="none" stroke="gray" stroke-dasharray="5,2" d="M144.42,-696.61C262.1,-696.61 379.78,-696.61 497.46,-696.61"/>
<polygon fill="gray" stroke="gray" points="497.34,-700.11 507.34,-696.61 497.34,-693.11 497.34,-700.11"/>
</g>
<!-- node2 -->
<g id="node3" class="node">
<title>node2</title>
<ellipse fill="gold" stroke="black" cx="117" cy="-614.68" rx="47.91" ry="27.93"/>
<text xml:space="preserve" text-anchor="middle" x="117" y="-617.13" font-family="Arial" font-size="14.00" fill="#333333">Function</text>
<text xml:space="preserve" text-anchor="middle" x="117" y="-601.38" font-family="Arial" font-size="14.00" fill="#333333">gcd</text>
</g>
<!-- node0&#45;&gt;node2 -->
<g id="edge2" class="edge">
<title>node0&#45;&gt;node2</title>
<path fill="none" stroke="#666666" d="M117,-678.26C117,-671.19 117,-662.71 117,-654.31"/>
<polygon fill="#666666" stroke="#666666" points="120.5,-654.56 117,-644.56 113.5,-654.56 120.5,-654.56"/>
</g>
<!-- node25 -->
<g id="node26" class="node">
<title>node25</title>
<ellipse fill="gold" stroke="black" cx="536" cy="-614.68" rx="47.91" ry="27.93"/>
<text xml:space="preserve" text-anchor="middle" x="536" y="-617.13" font-family="Arial" font-size="14.00" fill="#333333">Function</text>
<text xml:space="preserve" text-anchor="middle" x="536" y="-601.38" font-family="Arial" font-size="14.00" fill="#333333">main</text>
</g>
<!-- node1&#45;&gt;node25 -->
<g id="edge27" class="edge">
<title>node1&#45;&gt;node25</title>
<path fill="none" stroke="#666666" d="M536,-678.26C536,-671.19 536,-662.71 536,-654.31"/>
<polygon fill="#666666" stroke="#666666" points="539.5,-654.56 536,-644.56 532.5,-654.56 539.5,-654.56"/>
</g>
<!-- node3 -->
<g id="node4" class="node">
<title>node3</title>
<polygon fill="lightblue" stroke="black" points="54,-550.75 0,-550.75 0,-514.75 54,-514.75 54,-550.75"/>
<text xml:space="preserve" text-anchor="middle" x="27" y="-527.32" font-family="Arial" font-size="14.00" fill="#333333">int</text>
</g>
<!-- node2&#45;&gt;node3 -->
<g id="edge3" class="edge">
<title>node2&#45;&gt;node3</title>
<path fill="none" stroke="#666666" d="M91.45,-590.99C80.1,-580.91 66.71,-569.02 55.09,-558.69"/>
<polygon fill="#666666" stroke="#666666" points="57.53,-556.18 47.73,-552.16 52.89,-561.42 57.53,-556.18"/>
</g>
<!-- node4 -->
<g id="node5" class="node">
<title>node4</title>
<polygon fill="lightblue" stroke="black" points="144,-550.75 90,-550.75 90,-514.75 144,-514.75 144,-550.75"/>
<text xml:space="preserve" text-anchor="middle" x="117" y="-527.32" font-family="Arial" font-size="14.00" fill="#333333">int</text>
</g>
<!-- node2&#45;&gt;node4 -->
<!-- node7 -->
<g id="node8" class="node">
<title>node7</title>
<polygon fill="lightcoral" stroke="black" points="216,-550.75 162,-550.75 162,-514.75 216,-514.75 216,-550.75"/>
<text xml:space="preserve" text-anchor="middle" x="189" y="-527.32" font-family="Arial" font-size="14.00" fill="#333333">{}</text>
</g>
<!-- node2&#45;&gt;node7 -->
<g id="edge8" class="edge">
<title>node2&#45;&gt;node7</title>
<path fill="none" stroke="#666666" d="M138.6,-589.7C147.17,-580.19 157.03,-569.24 165.75,-559.56"/>
<polygon fill="#666666" stroke="#666666" points="168.26,-562 172.35,-552.23 163.06,-557.32 168.26,-562"/>
</g>
<!-- node3&#45;&gt;node4 -->
<g id="edge5" class="edge">
<title>node3&#45;&gt;node4</title>
<path fill="none" stroke="gray" stroke-dasharray="5,2" d="M54.42,-532.75C62.4,-532.75 70.37,-532.75 78.35,-532.75"/>
<polygon fill="gray" stroke="gray" points="78.11,-536.25 88.11,-532.75 78.11,-529.25 78.11,-536.25"/>
</g>
<!-- node5 -->
<g id="node6" class="node">
<title>node5</title>
<polygon fill="lightgreen" stroke="black" points="54,-478.75 0,-478.75 0,-439.25 54,-439.25 54,-478.75"/>
<text xml:space="preserve" text-anchor="middle" x="27" y="-461.45" font-family="Arial" font-size="14.00" fill="#333333">Var</text>
<text xml:space="preserve" text-anchor="middle" x="27" y="-445.7" font-family="Arial" font-size="14.00" fill="#333333">u</text>
</g>
<!-- node3&#45;&gt;node5 -->
<g id="edge6" class="edge">
<title>node3&#45;&gt;node5</title>
<path fill="none" stroke="#666666" d="M27,-514.38C27,-507.24 27,-498.77 27,-490.65"/>
<polygon fill="#666666" stroke="#666666" points="30.5,-490.74 27,-480.74 23.5,-490.74 30.5,-490.74"/>
</g>
<!-- node6 -->
<g id="node7" class="node">
<title>node6</title>
<polygon fill="lightgreen" stroke="black" points="144,-478.75 90,-478.75 90,-439.25 144,-439.25 144,-478.75"/>
<text xml:space="preserve" text-anchor="middle" x="117" y="-461.45" font-family="Arial" font-size="14.00" fill="#333333">Var</text>
<text xml:space="preserve" text-anchor="middle" x="117" y="-445.7" font-family="Arial" font-size="14.00" fill="#333333">v</text>
</g>
<!-- node4&#45;&gt;node6 -->
<g id="edge7" class="edge">
<title>node4&#45;&gt;node6</title>
<path fill="none" stroke="#666666" d="M117,-514.38C117,-507.24 117,-498.77 117,-490.65"/>
<polygon fill="#666666" stroke="#666666" points="120.5,-490.74 117,-480.74 113.5,-490.74 120.5,-490.74"/>
</g>
<!-- node8 -->
<g id="node9" class="node">
<title>node8</title>
<polygon fill="orange" stroke="black" points="189,-477 162,-459 189,-441 216,-459 189,-477"/>
<text xml:space="preserve" text-anchor="middle" x="189" y="-453.57" font-family="Arial" font-size="14.00" fill="#333333">IF</text>
</g>
<!-- node7&#45;&gt;node8 -->
<g id="edge9" class="edge">
<title>node7&#45;&gt;node8</title>
<path fill="none" stroke="#666666" d="M189,-514.38C189,-506.68 189,-497.41 189,-488.73"/>
<polygon fill="#666666" stroke="#666666" points="192.5,-488.97 189,-478.97 185.5,-488.97 192.5,-488.97"/>
</g>
<!-- node9 -->
<g id="node10" class="node">
<title>node9</title>
<ellipse fill="lavender" stroke="black" cx="117" cy="-381.62" rx="21.62" ry="21.62"/>
<text xml:space="preserve" text-anchor="middle" x="117" y="-376.2" font-family="Arial" font-size="14.00" fill="#333333">==</text>
</g>
<!-- node8&#45;&gt;node9 -->
<g id="edge10" class="edge">
<title>node8&#45;&gt;node9</title>
<path fill="none" stroke="#666666" d="M178.99,-447.52C168.81,-436.86 152.71,-420 139.46,-406.14"/>
<polygon fill="#666666" stroke="#666666" points="142.15,-403.88 132.71,-399.07 137.08,-408.72 142.15,-403.88"/>
</g>
<!-- node12 -->
<g id="node13" class="node">
<title>node12</title>
<polygon fill="lightcoral" stroke="black" points="216,-399.62 162,-399.62 162,-363.62 216,-363.62 216,-399.62"/>
<text xml:space="preserve" text-anchor="middle" x="189" y="-376.2" font-family="Arial" font-size="14.00" fill="#333333">{}</text>
</g>
<!-- node8&#45;&gt;node12 -->
<g id="edge13" class="edge">
<title>node8&#45;&gt;node12</title>
<path fill="none" stroke="#666666" d="M189,-440.51C189,-431.86 189,-421.18 189,-411.36"/>
<polygon fill="#666666" stroke="#666666" points="192.5,-411.52 189,-401.52 185.5,-411.52 192.5,-411.52"/>
</g>
<!-- node15 -->
<g id="node16" class="node">
<title>node15</title>
<polygon fill="pink" stroke="black" points="306.12,-399.62 233.88,-399.62 233.88,-363.62 306.12,-363.62 306.12,-399.62"/>
<text xml:space="preserve" text-anchor="middle" x="270" y="-376.2" font-family="Arial" font-size="14.00" fill="#333333">RETURN</text>
</g>
<!-- node8&#45;&gt;node15 -->
<g id="edge16" class="edge">
<title>node8&#45;&gt;node15</title>
<path fill="none" stroke="#666666" d="M199.92,-447.83C210.9,-437.62 228.24,-421.48 242.93,-407.81"/>
<polygon fill="#666666" stroke="#666666" points="245.16,-410.52 250.09,-401.15 240.39,-405.4 245.16,-410.52"/>
</g>
<!-- node10 -->
<g id="node11" class="node">
<title>node10</title>
<polygon fill="lightyellow" stroke="black" points="81,-324 27,-324 27,-288 81,-288 81,-324"/>
<text xml:space="preserve" text-anchor="middle" x="54" y="-300.57" font-family="Arial" font-size="14.00" fill="#333333">v</text>
</g>
<!-- node9&#45;&gt;node10 -->
<g id="edge11" class="edge">
<title>node9&#45;&gt;node10</title>
<path fill="none" stroke="#666666" d="M103.33,-364.65C95.41,-355.4 85.26,-343.53 76.22,-332.97"/>
<polygon fill="#666666" stroke="#666666" points="79.11,-330.96 69.95,-325.64 73.79,-335.51 79.11,-330.96"/>
</g>
<!-- node11 -->
<g id="node12" class="node">
<title>node11</title>
<ellipse fill="lightpink" stroke="black" cx="117" cy="-306" rx="18" ry="18"/>
<text xml:space="preserve" text-anchor="middle" x="117" y="-300.57" font-family="Arial" font-size="14.00" fill="#333333">0</text>
</g>
<!-- node9&#45;&gt;node11 -->
<g id="edge12" class="edge">
<title>node9&#45;&gt;node11</title>
<path fill="none" stroke="#666666" d="M117,-359.72C117,-352.18 117,-343.54 117,-335.46"/>
<polygon fill="#666666" stroke="#666666" points="120.5,-335.74 117,-325.74 113.5,-335.74 120.5,-335.74"/>
</g>
<!-- node13 -->
<g id="node14" class="node">
<title>node13</title>
<polygon fill="pink" stroke="black" points="225.12,-324 152.88,-324 152.88,-288 225.12,-288 225.12,-324"/>
<text xml:space="preserve" text-anchor="middle" x="189" y="-300.57" font-family="Arial" font-size="14.00" fill="#333333">RETURN</text>
</g>
<!-- node12&#45;&gt;node13 -->
<g id="edge14" class="edge">
<title>node12&#45;&gt;node13</title>
<path fill="none" stroke="#666666" d="M189,-363.18C189,-354.92 189,-344.86 189,-335.54"/>
<polygon fill="#666666" stroke="#666666" points="192.5,-335.84 189,-325.84 185.5,-335.84 192.5,-335.84"/>
</g>
<!-- node14 -->
<g id="node15" class="node">
<title>node14</title>
<polygon fill="lightyellow" stroke="black" points="216,-252 162,-252 162,-216 216,-216 216,-252"/>
<text xml:space="preserve" text-anchor="middle" x="189" y="-228.57" font-family="Arial" font-size="14.00" fill="#333333">u</text>
</g>
<!-- node13&#45;&gt;node14 -->
<g id="edge15" class="edge">
<title>node13&#45;&gt;node14</title>
<path fill="none" stroke="#666666" d="M189,-287.7C189,-280.41 189,-271.73 189,-263.54"/>
<polygon fill="#666666" stroke="#666666" points="192.5,-263.62 189,-253.62 185.5,-263.62 192.5,-263.62"/>
</g>
<!-- node16 -->
<g id="node17" class="node">
<title>node16</title>
<polygon fill="peachpuff" stroke="black" points="297,-324 243,-324 243,-288 297,-288 297,-324"/>
<text xml:space="preserve" text-anchor="middle" x="270" y="-300.57" font-family="Arial" font-size="14.00" fill="#333333">gcd()</text>
</g>
<!-- node15&#45;&gt;node16 -->
<g id="edge17" class="edge">
<title>node15&#45;&gt;node16</title>
<path fill="none" stroke="#666666" d="M270,-363.18C270,-354.92 270,-344.86 270,-335.54"/>
<polygon fill="#666666" stroke="#666666" points="273.5,-335.84 270,-325.84 266.5,-335.84 273.5,-335.84"/>
</g>
<!-- node17 -->
<g id="node18" class="node">
<title>node17</title>
<polygon fill="lightyellow" stroke="black" points="292,-252 238,-252 238,-216 292,-216 292,-252"/>
<text xml:space="preserve" text-anchor="middle" x="265" y="-228.57" font-family="Arial" font-size="14.00" fill="#333333">v</text>
</g>
<!-- node16&#45;&gt;node17 -->
<g id="edge18" class="edge">
<title>node16&#45;&gt;node17</title>
<path fill="none" stroke="#666666" d="M268.76,-287.7C268.24,-280.41 267.62,-271.73 267.04,-263.54"/>
<polygon fill="#666666" stroke="#666666" points="270.53,-263.34 266.33,-253.61 263.55,-263.84 270.53,-263.34"/>
</g>
<!-- node18 -->
<g id="node19" class="node">
<title>node18</title>
<ellipse fill="lavender" stroke="black" cx="346" cy="-234" rx="18" ry="18"/>
<text xml:space="preserve" text-anchor="middle" x="346" y="-228.57" font-family="Arial" font-size="14.00" fill="#333333">&#45;</text>
</g>
<!-- node16&#45;&gt;node18 -->
<!-- node17&#45;&gt;node18 -->
<g id="edge20" class="edge">
<title>node17&#45;&gt;node18</title>
<path fill="none" stroke="gray" stroke-dasharray="5,2" d="M292.21,-234C300.21,-234 308.21,-234 316.2,-234"/>
<polygon fill="gray" stroke="gray" points="316,-237.5 326,-234 316,-230.5 316,-237.5"/>
</g>
<!-- node19 -->
<g id="node20" class="node">
<title>node19</title>
<polygon fill="lightyellow" stroke="black" points="341,-180 287,-180 287,-144 341,-144 341,-180"/>
<text xml:space="preserve" text-anchor="middle" x="314" y="-156.57" font-family="Arial" font-size="14.00" fill="#333333">u</text>
</g>
<!-- node18&#45;&gt;node19 -->
<g id="edge21" class="edge">
<title>node18&#45;&gt;node19</title>
<path fill="none" stroke="#666666" d="M338.74,-217.12C335.17,-209.32 330.77,-199.69 326.67,-190.73"/>
<polygon fill="#666666" stroke="#666666" points="329.88,-189.31 322.53,-181.67 323.51,-192.22 329.88,-189.31"/>
</g>
<!-- node20 -->
<g id="node21" class="node">
<title>node20</title>
<ellipse fill="lavender" stroke="black" cx="377" cy="-162" rx="18" ry="18"/>
<text xml:space="preserve" text-anchor="middle" x="377" y="-156.57" font-family="Arial" font-size="14.00" fill="#333333">*</text>
</g>
<!-- node18&#45;&gt;node20 -->
<g id="edge22" class="edge">
<title>node18&#45;&gt;node20</title>
<path fill="none" stroke="#666666" d="M353.03,-217.12C356.68,-208.88 361.23,-198.61 365.38,-189.24"/>
<polygon fill="#666666" stroke="#666666" points="368.53,-190.77 369.38,-180.21 362.13,-187.93 368.53,-190.77"/>
</g>
<!-- node21 -->
<g id="node22" class="node">
<title>node21</title>
<ellipse fill="lavender" stroke="black" cx="345" cy="-90" rx="18" ry="18"/>
<text xml:space="preserve" text-anchor="middle" x="345" y="-84.58" font-family="Arial" font-size="14.00" fill="#333333">/</text>
</g>
<!-- node20&#45;&gt;node21 -->
<g id="edge23" class="edge">
<title>node20&#45;&gt;node21</title>
<path fill="none" stroke="#666666" d="M369.74,-145.12C365.97,-136.88 361.28,-126.61 356.99,-117.24"/>
<polygon fill="#666666" stroke="#666666" points="360.2,-115.84 352.86,-108.2 353.84,-118.75 360.2,-115.84"/>
</g>
<!-- node24 -->
<g id="node25" class="node">
<title>node24</title>
<polygon fill="lightyellow" stroke="black" points="435,-108 381,-108 381,-72 435,-72 435,-108"/>
<text xml:space="preserve" text-anchor="middle" x="408" y="-84.58" font-family="Arial" font-size="14.00" fill="#333333">v</text>
</g>
<!-- node20&#45;&gt;node24 -->
<g id="edge26" class="edge">
<title>node20&#45;&gt;node24</title>
<path fill="none" stroke="#666666" d="M384.03,-145.12C387.49,-137.32 391.75,-127.69 395.72,-118.73"/>
<polygon fill="#666666" stroke="#666666" points="398.88,-120.24 399.73,-109.68 392.48,-117.4 398.88,-120.24"/>
</g>
<!-- node22 -->
<g id="node23" class="node">
<title>node22</title>
<polygon fill="lightyellow" stroke="black" points="336,-36 282,-36 282,0 336,0 336,-36"/>
<text xml:space="preserve" text-anchor="middle" x="309" y="-12.57" font-family="Arial" font-size="14.00" fill="#333333">u</text>
</g>
<!-- node21&#45;&gt;node22 -->
<g id="edge24" class="edge">
<title>node21&#45;&gt;node22</title>
<path fill="none" stroke="#666666" d="M337.01,-73.46C332.96,-65.59 327.92,-55.79 323.24,-46.68"/>
<polygon fill="#666666" stroke="#666666" points="326.36,-45.1 318.67,-37.81 320.13,-48.3 326.36,-45.1"/>
</g>
<!-- node23 -->
<g id="node24" class="node">
<title>node23</title>
<polygon fill="lightyellow" stroke="black" points="408,-36 354,-36 354,0 408,0 408,-36"/>
<text xml:space="preserve" text-anchor="middle" x="381" y="-12.57" font-family="Arial" font-size="14.00" fill="#333333">v</text>
</g>
<!-- node21&#45;&gt;node23 -->
<g id="edge25" class="edge">
<title>node21&#45;&gt;node23</title>
<path fill="none" stroke="#666666" d="M352.99,-73.46C357.04,-65.59 362.08,-55.79 366.76,-46.68"/>
<polygon fill="#666666" stroke="#666666" points="369.87,-48.3 371.33,-37.81 363.64,-45.1 369.87,-48.3"/>
</g>
<!-- node26 -->
<g id="node27" class="node">
<title>node26</title>
<polygon fill="lightcoral" stroke="black" points="563,-550.75 509,-550.75 509,-514.75 563,-514.75 563,-550.75"/>
<text xml:space="preserve" text-anchor="middle" x="536" y="-527.32" font-family="Arial" font-size="14.00" fill="#333333">{}</text>
</g>
<!-- node25&#45;&gt;node26 -->
<g id="edge28" class="edge">
<title>node25&#45;&gt;node26</title>
<path fill="none" stroke="#666666" d="M536,-586.62C536,-578.8 536,-570.24 536,-562.33"/>
<polygon fill="#666666" stroke="#666666" points="539.5,-562.52 536,-552.52 532.5,-562.52 539.5,-562.52"/>
</g>
<!-- node27 -->
<g id="node28" class="node">
<title>node27</title>
<polygon fill="lightblue" stroke="black" points="386,-477 332,-477 332,-441 386,-441 386,-477"/>
<text xml:space="preserve" text-anchor="middle" x="359" y="-453.57" font-family="Arial" font-size="14.00" fill="#333333">int</text>
</g>
<!-- node26&#45;&gt;node27 -->
<g id="edge29" class="edge">
<title>node26&#45;&gt;node27</title>
<path fill="none" stroke="#666666" d="M508.73,-520.69C478.72,-508.53 430.28,-488.89 396.65,-475.26"/>
<polygon fill="#666666" stroke="#666666" points="398.28,-472.14 387.7,-471.63 395.65,-478.63 398.28,-472.14"/>
</g>
<!-- node28 -->
<g id="node29" class="node">
<title>node28</title>
<polygon fill="lightblue" stroke="black" points="484,-477 430,-477 430,-441 484,-441 484,-477"/>
<text xml:space="preserve" text-anchor="middle" x="457" y="-453.57" font-family="Arial" font-size="14.00" fill="#333333">int</text>
</g>
<!-- node26&#45;&gt;node28 -->
<!-- node31 -->
<g id="node32" class="node">
<title>node31</title>
<ellipse fill="khaki" stroke="black" cx="536" cy="-459" rx="18" ry="18"/>
<text xml:space="preserve" text-anchor="middle" x="536" y="-453.57" font-family="Arial" font-size="14.00" fill="#333333">=</text>
</g>
<!-- node26&#45;&gt;node31 -->
<g id="edge34" class="edge">
<title>node26&#45;&gt;node31</title>
<path fill="none" stroke="#666666" d="M536,-514.38C536,-506.68 536,-497.41 536,-488.73"/>
<polygon fill="#666666" stroke="#666666" points="539.5,-488.97 536,-478.97 532.5,-488.97 539.5,-488.97"/>
</g>
<!-- node32 -->
<g id="node33" class="node">
<title>node32</title>
<ellipse fill="khaki" stroke="black" cx="639" cy="-459" rx="18" ry="18"/>
<text xml:space="preserve" text-anchor="middle" x="639" y="-453.57" font-family="Arial" font-size="14.00" fill="#333333">=</text>
</g>
<!-- node26&#45;&gt;node32 -->
<!-- node33 -->
<g id="node34" class="node">
<title>node33</title>
<polygon fill="peachpuff" stroke="black" points="784.25,-477 721.75,-477 721.75,-441 784.25,-441 784.25,-477"/>
<text xml:space="preserve" text-anchor="middle" x="753" y="-453.57" font-family="Arial" font-size="14.00" fill="#333333">output()</text>
</g>
<!-- node26&#45;&gt;node33 -->
<!-- node27&#45;&gt;node28 -->
<g id="edge31" class="edge">
<title>node27&#45;&gt;node28</title>
<path fill="none" stroke="gray" stroke-dasharray="5,2" d="M386.18,-459C396.92,-459 407.67,-459 418.41,-459"/>
<polygon fill="gray" stroke="gray" points="418.1,-462.5 428.1,-459 418.1,-455.5 418.1,-462.5"/>
</g>
<!-- node29 -->
<g id="node30" class="node">
<title>node29</title>
<polygon fill="lightgreen" stroke="black" points="378,-401.37 324,-401.37 324,-361.87 378,-361.87 378,-401.37"/>
<text xml:space="preserve" text-anchor="middle" x="351" y="-384.07" font-family="Arial" font-size="14.00" fill="#333333">Var</text>
<text xml:space="preserve" text-anchor="middle" x="351" y="-368.32" font-family="Arial" font-size="14.00" fill="#333333">x</text>
</g>
<!-- node27&#45;&gt;node29 -->
<g id="edge32" class="edge">
<title>node27&#45;&gt;node29</title>
<path fill="none" stroke="#666666" d="M357.14,-440.51C356.28,-432.38 355.23,-422.46 354.24,-413.15"/>
<polygon fill="#666666" stroke="#666666" points="357.74,-412.94 353.2,-403.37 350.78,-413.68 357.74,-412.94"/>
</g>
<!-- node30 -->
<g id="node31" class="node">
<title>node30</title>
<polygon fill="lightgreen" stroke="black" points="450,-401.37 396,-401.37 396,-361.87 450,-361.87 450,-401.37"/>
<text xml:space="preserve" text-anchor="middle" x="423" y="-384.07" font-family="Arial" font-size="14.00" fill="#333333">Var</text>
<text xml:space="preserve" text-anchor="middle" x="423" y="-368.32" font-family="Arial" font-size="14.00" fill="#333333">y</text>
</g>
<!-- node28&#45;&gt;node30 -->
<g id="edge33" class="edge">
<title>node28&#45;&gt;node30</title>
<path fill="none" stroke="#666666" d="M449.11,-440.51C445.32,-432.11 440.67,-421.8 436.35,-412.22"/>
<polygon fill="#666666" stroke="#666666" points="439.6,-410.92 432.3,-403.24 433.22,-413.8 439.6,-410.92"/>
</g>
<!-- node31&#45;&gt;node32 -->
<g id="edge37" class="edge">
<title>node31&#45;&gt;node32</title>
<path fill="none" stroke="gray" stroke-dasharray="5,2" d="M554.11,-459C572.51,-459 590.9,-459 609.3,-459"/>
<polygon fill="gray" stroke="gray" points="609.25,-462.5 619.25,-459 609.25,-455.5 609.25,-462.5"/>
</g>
<!-- node34 -->
<g id="node35" class="node">
<title>node34</title>
<polygon fill="lightyellow" stroke="black" points="522,-399.62 468,-399.62 468,-363.62 522,-363.62 522,-399.62"/>
<text xml:space="preserve" text-anchor="middle" x="495" y="-376.2" font-family="Arial" font-size="14.00" fill="#333333">x</text>
</g>
<!-- node31&#45;&gt;node34 -->
<g id="edge39" class="edge">
<title>node31&#45;&gt;node34</title>
<path fill="none" stroke="#666666" d="M527.7,-442.74C522.6,-433.36 515.9,-421.05 509.9,-410.01"/>
<polygon fill="#666666" stroke="#666666" points="513.01,-408.4 505.16,-401.29 506.86,-411.75 513.01,-408.4"/>
</g>
<!-- node35 -->
<g id="node36" class="node">
<title>node35</title>
<polygon fill="peachpuff" stroke="black" points="594.12,-399.62 539.88,-399.62 539.88,-363.62 594.12,-363.62 594.12,-399.62"/>
<text xml:space="preserve" text-anchor="middle" x="567" y="-376.2" font-family="Arial" font-size="14.00" fill="#333333">input()</text>
</g>
<!-- node31&#45;&gt;node35 -->
<g id="edge40" class="edge">
<title>node31&#45;&gt;node35</title>
<path fill="none" stroke="#666666" d="M542.57,-442.01C546.35,-432.84 551.19,-421.06 555.57,-410.42"/>
<polygon fill="#666666" stroke="#666666" points="558.75,-411.88 559.32,-401.3 552.28,-409.21 558.75,-411.88"/>
</g>
<!-- node32&#45;&gt;node33 -->
<g id="edge38" class="edge">
<title>node32&#45;&gt;node33</title>
<path fill="none" stroke="gray" stroke-dasharray="5,2" d="M657.26,-459C674.93,-459 692.6,-459 710.28,-459"/>
<polygon fill="gray" stroke="gray" points="710.07,-462.5 720.07,-459 710.07,-455.5 710.07,-462.5"/>
</g>
<!-- node36 -->
<g id="node37" class="node">
<title>node36</title>
<polygon fill="lightyellow" stroke="black" points="666,-399.62 612,-399.62 612,-363.62 666,-363.62 666,-399.62"/>
<text xml:space="preserve" text-anchor="middle" x="639" y="-376.2" font-family="Arial" font-size="14.00" fill="#333333">y</text>
</g>
<!-- node32&#45;&gt;node36 -->
<g id="edge41" class="edge">
<title>node32&#45;&gt;node36</title>
<path fill="none" stroke="#666666" d="M639,-440.51C639,-431.86 639,-421.18 639,-411.36"/>
<polygon fill="#666666" stroke="#666666" points="642.5,-411.52 639,-401.52 635.5,-411.52 642.5,-411.52"/>
</g>
<!-- node37 -->
<g id="node38" class="node">
<title>node37</title>
<polygon fill="peachpuff" stroke="black" points="738.12,-399.62 683.88,-399.62 683.88,-363.62 738.12,-363.62 738.12,-399.62"/>
<text xml:space="preserve" text-anchor="middle" x="711" y="-376.2" font-family="Arial" font-size="14.00" fill="#333333">input()</text>
</g>
<!-- node32&#45;&gt;node37 -->
<g id="edge42" class="edge">
<title>node32&#45;&gt;node37</title>
<path fill="none" stroke="#666666" d="M651.21,-445.21C660.86,-435.11 674.64,-420.69 686.54,-408.23"/>
<polygon fill="#666666" stroke="#666666" points="688.97,-410.75 693.35,-401.1 683.91,-405.91 688.97,-410.75"/>
</g>
<!-- node38 -->
<g id="node39" class="node">
<title>node38</title>
<polygon fill="peachpuff" stroke="black" points="810,-399.62 756,-399.62 756,-363.62 810,-363.62 810,-399.62"/>
<text xml:space="preserve" text-anchor="middle" x="783" y="-376.2" font-family="Arial" font-size="14.00" fill="#333333">gcd()</text>
</g>
<!-- node33&#45;&gt;node38 -->
<g id="edge43" class="edge">
<title>node33&#45;&gt;node38</title>
<path fill="none" stroke="#666666" d="M759.96,-440.51C763.52,-431.57 767.93,-420.48 771.95,-410.4"/>
<polygon fill="#666666" stroke="#666666" points="775.07,-412 775.52,-401.42 768.57,-409.41 775.07,-412"/>
</g>
<!-- node39 -->
<g id="node40" class="node">
<title>node39</title>
<polygon fill="lightyellow" stroke="black" points="765,-324 711,-324 711,-288 765,-288 765,-324"/>
<text xml:space="preserve" text-anchor="middle" x="738" y="-300.57" font-family="Arial" font-size="14.00" fill="#333333">x</text>
</g>
<!-- node38&#45;&gt;node39 -->
<g id="edge44" class="edge">
<title>node38&#45;&gt;node39</title>
<path fill="none" stroke="#666666" d="M772.34,-363.18C767.01,-354.47 760.45,-343.73 754.5,-333.99"/>
<polygon fill="#666666" stroke="#666666" points="757.58,-332.32 749.38,-325.61 751.61,-335.97 757.58,-332.32"/>
</g>
<!-- node40 -->
<g id="node41" class="node">
<title>node40</title>
<polygon fill="lightyellow" stroke="black" points="855,-324 801,-324 801,-288 855,-288 855,-324"/>
<text xml:space="preserve" text-anchor="middle" x="828" y="-300.57" font-family="Arial" font-size="14.00" fill="#333333">y</text>
</g>
<!-- node38&#45;&gt;node40 -->
<!-- node39&#45;&gt;node40 -->
<g id="edge46" class="edge">
<title>node39&#45;&gt;node40</title>
<path fill="none" stroke="gray" stroke-dasharray="5,2" d="M765.42,-306C773.4,-306 781.37,-306 789.35,-306"/>
<polygon fill="gray" stroke="gray" points="789.11,-309.5 799.11,-306 789.11,-302.5 789.11,-309.5"/>
</g>
</g>
</svg>
